<svg width="24" height="24" viewBox="0 0 24 24" fill="none" xmlns="http://www.w3.org/2000/svg">
<path d="M12 0.333252C5.55998 0.333252 0.333313 5.55992 0.333313 11.9999C0.333313 18.4399 5.55998 23.6666 12 23.6666C18.44 23.6666 23.6666 18.4399 23.6666 11.9999C23.6666 5.55992 18.44 0.333252 12 0.333252ZM12 21.3333C6.85498 21.3333 2.66665 17.1449 2.66665 11.9999C2.66665 6.85492 6.85498 2.66659 12 2.66659C17.145 2.66659 21.3333 6.85492 21.3333 11.9999C21.3333 17.1449 17.145 21.3333 12 21.3333ZM17.355 6.84325L9.66665 14.5316L6.64498 11.5216L4.99998 13.1666L9.66665 17.8333L19 8.49992L17.355 6.84325Z" fill="#3A6108"/>
</svg>
